<?xml version="1.0" encoding="UTF-8"?>
<svg id="Layer_2" data-name="Layer 2" xmlns="http://www.w3.org/2000/svg" viewBox="0 0 36.52 10.33">
  <defs>
    <style>
      .cls-1 {
        fill: #fff;
      }

      .cls-2 {
        fill: #161515;
      }
    </style>
  </defs>
  <g id="Layer_1-2" data-name="Layer 1">
    <g>
      <g>
        <rect class="cls-2" x="0" y="0" width="36.52" height="10.33" rx="5.17" ry="5.17"/>
        <path class="cls-2" d="M31.36.75c2.43,0,4.42,1.98,4.42,4.42s-1.98,4.42-4.42,4.42H5.17c-2.43,0-4.42-1.98-4.42-4.42S2.73.75,5.17.75h26.19M31.36,0H5.17C2.31,0,0,2.31,0,5.17H0C0,8.02,2.31,10.33,5.17,10.33h26.19c2.85,0,5.17-2.31,5.17-5.17h0c0-2.85-2.31-5.17-5.17-5.17h0Z"/>
      </g>
      <g>
        <path class="cls-1" d="M7.64,3.41h.45l1.28,3.51h-.41l-.4-1.13h-1.43l-.41,1.13h-.39l1.3-3.51ZM8.45,5.45l-.6-1.65-.6,1.65h1.2Z"/>
        <path class="cls-1" d="M10.04,6.81c-.17-.11-.31-.26-.4-.45-.1-.2-.14-.42-.14-.68s.05-.49.14-.69c.09-.2.23-.35.4-.46.17-.11.37-.16.59-.16.19,0,.36.05.51.13.15.09.27.22.36.38v-1.52h.35v3.55h-.35v-.45c-.09.16-.21.28-.36.37-.15.09-.32.13-.52.13-.22,0-.42-.05-.59-.16ZM11.14,6.53c.12-.08.22-.2.28-.34.07-.15.1-.31.1-.5v-.04c0-.19-.03-.36-.1-.5-.07-.14-.16-.26-.28-.33s-.27-.12-.43-.12c-.25,0-.45.09-.6.26-.15.17-.22.41-.22.71v.04c0,.3.07.53.22.7.15.17.35.25.6.25.16,0,.3-.04.43-.12Z"/>
        <path class="cls-1" d="M12.83,6.81c-.17-.11-.31-.26-.4-.45-.1-.2-.14-.42-.14-.68s.05-.49.14-.69c.09-.2.23-.35.4-.46.17-.11.37-.16.59-.16.19,0,.36.05.51.13.15.09.27.22.36.38v-1.52h.35v3.55h-.35v-.45c-.09.16-.21.28-.36.37-.15.09-.32.13-.52.13-.22,0-.42-.05-.59-.16ZM13.93,6.53c.12-.08.22-.2.28-.34.07-.15.1-.31.1-.5v-.04c0-.19-.03-.36-.1-.5-.07-.14-.16-.26-.28-.33s-.27-.12-.43-.12c-.25,0-.45.09-.6.26-.15.17-.22.41-.22.71v.04c0,.3.07.53.22.7.15.17.35.25.6.25.16,0,.3-.04.43-.12Z"/>
        <path class="cls-1" d="M16.72,6.85c-.08-.04-.14-.11-.18-.19-.04-.08-.05-.2-.05-.33v-1.58h-.45v-.32h.45v-.52l.35-.24v.76h.59v.32h-.6v1.54c0,.11.02.19.07.24.04.05.12.07.23.07h.29v.32h-.37c-.14,0-.25-.02-.33-.07Z"/>
        <path class="cls-1" d="M18.17,6.8c-.18-.11-.33-.26-.43-.45-.1-.19-.15-.42-.15-.67s.05-.48.16-.67.25-.35.44-.46c.19-.11.4-.16.64-.16s.45.05.64.16c.19.11.33.26.43.46s.16.42.16.67-.05.47-.16.67-.25.35-.44.46c-.19.11-.4.16-.64.16s-.46-.05-.64-.16ZM19.44,6.39c.15-.17.23-.41.23-.7v-.02c0-.3-.08-.54-.23-.71s-.36-.26-.62-.26-.47.09-.63.26-.23.41-.23.71v.02c0,.3.08.53.23.7.15.17.36.26.63.26s.48-.09.63-.26Z"/>
        <path class="cls-1" d="M22.12,6.75c-.24-.15-.43-.36-.57-.63-.14-.27-.21-.59-.21-.95s.07-.69.21-.96c.14-.27.33-.49.58-.63.24-.15.52-.22.83-.22.4,0,.73.11,1,.32s.44.56.51,1.02h-.4c-.06-.36-.18-.62-.37-.78-.19-.15-.44-.23-.73-.23-.24,0-.45.06-.63.17s-.33.28-.43.5c-.1.22-.16.48-.16.78v.03c0,.3.05.56.16.78s.25.39.43.5c.18.12.39.17.63.17.29,0,.54-.08.74-.24.2-.16.32-.42.38-.79h.4c-.07.47-.24.82-.51,1.04s-.61.33-1.02.33c-.3,0-.57-.07-.82-.22Z"/>
        <path class="cls-1" d="M24.95,6.78c-.15-.13-.23-.3-.23-.51,0-.17.04-.31.12-.41.08-.1.19-.18.32-.23s.3-.1.51-.14c.07-.01.13-.03.17-.04.19-.04.34-.07.43-.11s.15-.08.18-.14v-.03c0-.15-.05-.27-.15-.35s-.25-.13-.46-.13-.38.04-.5.13c-.12.09-.18.22-.18.4v.03h-.37c0-.27.1-.48.3-.63.19-.15.45-.22.76-.22s.56.07.72.22.25.36.25.65v1.67s-.36,0-.36,0v-.44c-.09.17-.22.3-.37.38s-.33.12-.51.12c-.26,0-.47-.07-.62-.2ZM26.16,6.51c.15-.11.24-.29.29-.51v-.51c-.05.05-.13.09-.22.12-.09.03-.22.06-.38.1-.04,0-.08.02-.13.03-.2.05-.35.11-.46.18-.1.07-.16.18-.16.33,0,.13.04.23.13.31.09.08.22.12.38.12.22,0,.41-.06.55-.17Z"/>
        <path class="cls-1" d="M27.37,4.43h.36v.51c.05-.18.13-.31.24-.4.12-.09.29-.13.51-.13h.12v.36h-.21c-.25,0-.42.07-.51.21-.09.14-.14.37-.14.69v1.25h-.37v-2.49Z"/>
        <path class="cls-1" d="M29.47,6.85c-.08-.04-.14-.11-.18-.19-.04-.08-.05-.2-.05-.33v-1.58h-.45v-.32h.45v-.52l.35-.24v.76h.59v.32h-.6v1.54c0,.11.02.19.07.24.04.05.12.07.23.07h.29v.32h-.37c-.14,0-.25-.02-.33-.07Z"/>
      </g>
    </g>
  </g>
</svg>