<?xml version="1.0" encoding="UTF-8"?>
<svg id="Layer_2" data-name="Layer 2" xmlns="http://www.w3.org/2000/svg" viewBox="0 0 41.36 15.33">
  <defs>
    <style>
      .cls-1, .cls-2 {
        fill: #161515;
      }

      .cls-2 {
        stroke: #161515;
        stroke-miterlimit: 10;
        stroke-width: .75px;
      }
    </style>
  </defs>
  <g id="Layer_1-2" data-name="Layer 1">
    <g>
      <g>
        <path class="cls-2" d="M.94.56h4c.85,0,1.55.11,2.1.32s.97.53,1.25.96.42.97.42,1.62c0,.62-.16,1.13-.48,1.53-.32.4-.8.69-1.44.88.84.2,1.46.53,1.87,1,.41.48.62,1.09.62,1.85s-.15,1.32-.46,1.8c-.31.48-.77.84-1.39,1.08-.62.24-1.38.36-2.29.36H.94V.56ZM6.71,4.95c.48-.32.71-.79.71-1.42.02-.68-.15-1.16-.53-1.45s-1.01-.44-1.91-.44h-2.8v3.78h2.37c.96,0,1.68-.16,2.16-.47ZM7.24,10.34c.48-.37.71-.92.71-1.67.01-.74-.23-1.3-.73-1.66-.5-.36-1.27-.54-2.33-.54h-2.71v4.42h2.89c.97,0,1.7-.18,2.17-.55Z"/>
        <path class="cls-2" d="M14.12.55h1.48l4.18,11.43h-1.32l-1.31-3.69h-4.66l-1.34,3.69h-1.27L14.12.55ZM16.77,7.2l-1.94-5.36-1.96,5.36h3.9Z"/>
        <path class="cls-2" d="M22.46,11.44c-.79-.48-1.41-1.17-1.86-2.06-.45-.89-.68-1.92-.68-3.09s.23-2.23.69-3.13c.46-.89,1.08-1.58,1.88-2.06.8-.48,1.69-.72,2.69-.72,1.29,0,2.38.35,3.26,1.06.88.7,1.43,1.81,1.66,3.32l-1.31.02c-.18-1.2-.59-2.05-1.22-2.54s-1.43-.74-2.39-.74c-.77,0-1.45.19-2.05.57-.6.38-1.07.92-1.41,1.63-.34.71-.51,1.55-.51,2.53v.1c0,.97.17,1.82.51,2.53s.8,1.25,1.4,1.63,1.28.57,2.04.57c.96,0,1.77-.25,2.41-.76.65-.51,1.06-1.37,1.23-2.59l1.31.02c-.22,1.52-.77,2.65-1.67,3.37s-2,1.08-3.32,1.08c-.99,0-1.87-.24-2.66-.72Z"/>
        <path class="cls-2" d="M31.6.56h1.24v6.55l5.76-6.55h1.43l-3.99,4.57,4.38,6.84h-1.41l-3.81-5.96-2.35,2.65v3.32h-1.24V.56Z"/>
      </g>
      <g>
        <rect class="cls-1" x=".37" y="14.43" width="40.61" height=".52"/>
        <polygon class="cls-1" points="41.36 14.05 0 14.05 0 15.33 41.36 15.33 41.36 14.05 41.36 14.05"/>
      </g>
    </g>
  </g>
</svg>