<?xml version="1.0" encoding="UTF-8"?>
<svg id="Layer_2" data-name="Layer 2" xmlns="http://www.w3.org/2000/svg" viewBox="0 0 89.85 25.41">
  <defs>
    <style>
      .cls-1 {
        fill: #fff;
      }

      .cls-2 {
        fill: #161515;
      }
    </style>
  </defs>
  <g id="Layer_1-2" data-name="Layer 1">
    <g>
      <g>
        <rect class="cls-2" x="0" y="0" width="89.85" height="25.41" rx="12.71" ry="12.71"/>
        <path class="cls-2" d="M77.14.75c6.59,0,11.96,5.36,11.96,11.96s-5.36,11.96-11.96,11.96H12.71C6.11,24.66.75,19.3.75,12.71S6.11.75,12.71.75h64.44M77.14,0H12.71C5.69,0,0,5.69,0,12.71H0C0,19.73,5.69,25.41,12.71,25.41h64.44c7.02,0,12.71-5.69,12.71-12.71h0c0-7.02-5.69-12.71-12.71-12.71h0Z"/>
      </g>
      <g>
        <path class="cls-1" d="M16.95,17.5c-.73-.44-1.31-1.08-1.73-1.91-.42-.83-.63-1.78-.63-2.86s.21-2.07.64-2.9,1-1.46,1.74-1.91,1.57-.67,2.49-.67c1.2,0,2.2.33,3.01.98.81.65,1.32,1.68,1.54,3.08l-1.21.02c-.17-1.11-.55-1.9-1.13-2.35s-1.32-.68-2.21-.68c-.71,0-1.34.18-1.9.53s-.99.85-1.31,1.51c-.31.66-.47,1.44-.47,2.34v.1c0,.9.16,1.68.47,2.34.31.66.75,1.16,1.3,1.51.55.35,1.18.53,1.89.53.89,0,1.64-.24,2.24-.71.6-.47.98-1.27,1.14-2.39l1.21.02c-.2,1.41-.72,2.45-1.54,3.12s-1.85,1-3.07,1c-.91,0-1.73-.22-2.47-.67Z"/>
        <path class="cls-1" d="M25.35,7.27h1.08v4.92c.44-1.23,1.28-1.85,2.51-1.85.81,0,1.44.26,1.9.77.46.51.69,1.24.69,2.19v4.69h-1.11v-4.63c0-.67-.15-1.18-.45-1.53-.3-.35-.73-.53-1.3-.53-.74,0-1.3.29-1.68.88s-.56,1.44-.56,2.55v3.25h-1.08V7.27Z"/>
        <path class="cls-1" d="M34.47,17.65c-.56-.32-.98-.78-1.28-1.36-.3-.58-.45-1.26-.45-2.02s.16-1.44.47-2.04c.31-.59.75-1.06,1.3-1.39.55-.33,1.18-.5,1.88-.5,1.07,0,1.91.34,2.52,1.03.61.68.91,1.62.91,2.81v.41h-5.97c.03.8.28,1.43.73,1.91s1.07.72,1.83.72c.69,0,1.23-.15,1.63-.44.4-.29.69-.68.87-1.15l.97.37c-.25.64-.67,1.15-1.23,1.55s-1.31.6-2.24.6c-.74,0-1.39-.16-1.95-.48ZM38.04,11.9c-.41-.43-.96-.65-1.66-.65s-1.28.22-1.74.68c-.46.45-.72,1.06-.79,1.82h4.84c-.02-.8-.24-1.41-.64-1.85Z"/>
        <path class="cls-1" d="M42.51,17.64c-.56-.33-.99-.79-1.29-1.38-.3-.59-.45-1.26-.45-2.03s.15-1.44.46-2.03c.31-.59.74-1.05,1.3-1.38.56-.33,1.2-.49,1.93-.49.88,0,1.61.23,2.19.68.58.45.97,1.06,1.17,1.84l-1.07.3c-.14-.58-.4-1.04-.78-1.38-.38-.33-.89-.5-1.53-.5-.77,0-1.39.27-1.85.8s-.69,1.24-.69,2.13v.06c0,.88.23,1.59.68,2.12.45.54,1.06.8,1.84.8.67,0,1.2-.17,1.58-.51s.66-.82.8-1.43l1.07.32c-.22.81-.63,1.43-1.21,1.88-.58.45-1.32.68-2.21.68-.73,0-1.38-.16-1.93-.49Z"/>
        <path class="cls-1" d="M48.93,7.27h1.1v6.97l3.55-3.75h1.32l-2.75,2.78,2.9,4.72h-1.22l-2.42-3.98-1.37,1.45v2.53h-1.1V7.27Z"/>
        <path class="cls-1" d="M56.92,17.64c-.56-.33-.99-.78-1.3-1.37-.31-.58-.46-1.26-.46-2.04s.16-1.44.47-2.03c.31-.59.75-1.05,1.31-1.38.56-.33,1.21-.49,1.94-.49s1.36.16,1.93.49c.56.33,1,.79,1.31,1.38.31.59.47,1.27.47,2.03s-.16,1.43-.48,2.02-.76,1.06-1.32,1.38-1.21.49-1.94.49-1.38-.16-1.93-.49ZM60.76,16.4c.46-.52.69-1.22.69-2.12v-.06c0-.9-.23-1.62-.68-2.15s-1.08-.8-1.88-.8-1.43.27-1.9.8c-.47.53-.71,1.25-.71,2.15v.06c0,.89.23,1.6.69,2.12.46.52,1.09.78,1.89.78s1.44-.26,1.9-.78Z"/>
        <path class="cls-1" d="M64.44,17.35c-.45-.52-.67-1.25-.67-2.18v-4.69h1.13v4.63c0,.69.14,1.2.41,1.54.28.34.7.51,1.27.51.74,0,1.31-.3,1.71-.91.4-.6.6-1.44.6-2.5v-3.28h1.11v7.51h-1.1v-1.8c-.21.65-.53,1.13-.95,1.46-.42.32-.96.48-1.61.48-.83,0-1.46-.26-1.91-.78Z"/>
        <path class="cls-1" d="M73.09,17.79c-.25-.13-.43-.33-.53-.58-.11-.25-.16-.59-.16-1v-4.77h-1.35v-.95h1.37v-1.58l1.07-.73v2.31h1.78v.95h-1.8v4.65c0,.34.07.58.2.72.13.14.36.21.69.21h.88v.97h-1.13c-.42,0-.76-.07-1.01-.2Z"/>
      </g>
    </g>
  </g>
</svg>