<?xml version="1.0" encoding="UTF-8"?>
<svg id="Layer_2" data-name="Layer 2" xmlns="http://www.w3.org/2000/svg" viewBox="0 0 89.85 25.41">
  <defs>
    <style>
      .cls-1 {
        fill: #161515;
      }
    </style>
  </defs>
  <g id="Layer_1-2" data-name="Layer 1">
    <g>
      <path class="cls-1" d="M77.14,1c6.46,0,11.71,5.25,11.71,11.71s-5.25,11.71-11.71,11.71H12.71c-6.46,0-11.71-5.25-11.71-11.71S6.25,1,12.71,1h64.44M77.14,0H12.71C5.69,0,0,5.69,0,12.71h0c0,7.02,5.69,12.71,12.71,12.71h64.44c7.02,0,12.71-5.69,12.71-12.71h0c0-7.02-5.69-12.71-12.71-12.71h0Z"/>
      <g>
        <g>
          <path class="cls-1" d="M19.42,17.79c-.84,0-1.6-.21-2.27-.61-.67-.41-1.2-1-1.59-1.76-.39-.77-.59-1.68-.59-2.69s.2-1.96.6-2.72c.39-.76.93-1.35,1.6-1.76.67-.41,1.45-.61,2.3-.61,1.1,0,2.04.3,2.78.89.65.52,1.09,1.34,1.32,2.42h-.45c-.21-1.03-.61-1.8-1.21-2.27-.65-.51-1.47-.76-2.44-.76-.78,0-1.49.2-2.1.58-.62.39-1.1.95-1.44,1.67-.34.71-.51,1.55-.51,2.5,0,1.05.17,1.89.51,2.6.34.72.83,1.28,1.44,1.67.61.39,1.31.58,2.09.58.97,0,1.8-.27,2.47-.79.61-.48,1.02-1.26,1.22-2.31h.45c-.22,1.1-.67,1.93-1.33,2.46-.75.61-1.71.92-2.83.92Z"/>
          <path class="cls-1" d="M19.46,7.25c-.92,0-1.75.22-2.49.67-.74.45-1.32,1.08-1.74,1.91-.42.83-.64,1.79-.64,2.9s.21,2.04.63,2.86c.42.83.99,1.46,1.73,1.91.73.45,1.55.67,2.47.67,1.22,0,2.24-.33,3.07-1,.83-.67,1.34-1.71,1.54-3.12l-1.21-.02c-.16,1.12-.54,1.92-1.14,2.39-.6.47-1.34.71-2.24.71-.71,0-1.34-.18-1.89-.53-.55-.35-.98-.85-1.3-1.51-.31-.66-.47-1.44-.47-2.34v-.1c0-.9.16-1.68.47-2.34.31-.66.75-1.16,1.31-1.51.56-.35,1.19-.53,1.9-.53.89,0,1.63.23,2.21.68.58.46.96,1.24,1.13,2.35l1.21-.02c-.21-1.4-.72-2.43-1.54-3.08-.81-.65-1.82-.98-3.01-.98h0Z"/>
        </g>
        <g>
          <path class="cls-1" d="M30.8,17.61v-4.25c0-.76-.18-1.35-.54-1.77-.38-.43-.91-.66-1.58-.66-.46,0-.86.1-1.21.29.38-.34.87-.51,1.48-.51.7,0,1.23.21,1.62.65.4.44.6,1.09.6,1.94v4.32h-.36ZM25.72,17.61V7.64h.33v6.68-.03c0,.15,0,.3,0,.45v2.87h-.33Z"/>
          <path class="cls-1" d="M26.43,7.27h-1.08v10.72h1.08v-3.25c0-1.11.19-1.97.56-2.55.38-.59.94-.88,1.68-.88.56,0,.99.18,1.3.53.3.35.45.86.45,1.53v4.63h1.11v-4.69c0-.94-.23-1.67-.69-2.19-.46-.51-1.1-.77-1.9-.77-1.23,0-2.07.62-2.51,1.85v-4.92h0Z"/>
        </g>
        <g>
          <path class="cls-1" d="M36.42,17.76c-.67,0-1.26-.15-1.76-.43-.5-.29-.87-.68-1.13-1.21-.27-.53-.41-1.15-.41-1.85s.14-1.33.43-1.86c.28-.53.67-.95,1.16-1.25.49-.3,1.06-.45,1.68-.45.97,0,1.7.29,2.24.9.54.61.82,1.47.82,2.56v.04h-5.98l.02.39c.04.89.32,1.61.83,2.15.53.55,1.23.83,2.1.83.77,0,1.39-.17,1.85-.51.36-.26.64-.59.84-.98l.26.1c-.23.41-.54.76-.94,1.04-.5.35-1.18.53-2.02.53ZM36.37,10.87c-.8,0-1.47.26-2,.78-.52.51-.83,1.21-.9,2.06l-.03.41h5.63v-.39c-.03-.89-.29-1.59-.76-2.09-.48-.51-1.13-.77-1.94-.77Z"/>
          <path class="cls-1" d="M36.39,10.34c-.7,0-1.33.17-1.88.5-.55.33-.98.8-1.3,1.39-.31.59-.47,1.27-.47,2.04s.15,1.44.45,2.02c.3.58.72,1.04,1.28,1.36.56.32,1.21.48,1.95.48.92,0,1.67-.2,2.24-.6.57-.4.98-.91,1.23-1.55l-.97-.37c-.18.48-.47.86-.87,1.15-.4.29-.94.44-1.63.44-.76,0-1.37-.24-1.83-.72-.46-.48-.7-1.11-.73-1.91h5.97v-.41c0-1.19-.31-2.12-.91-2.81-.61-.68-1.45-1.03-2.52-1.03h0ZM33.84,13.74c.06-.76.33-1.37.79-1.82.46-.45,1.04-.68,1.74-.68s1.25.22,1.66.65c.41.44.62,1.05.64,1.85h-4.84Z"/>
        </g>
        <g>
          <path class="cls-1" d="M44.44,17.76c-.66,0-1.25-.15-1.74-.44-.5-.29-.87-.7-1.15-1.22-.27-.53-.41-1.16-.41-1.86s.14-1.32.42-1.85c.27-.52.66-.93,1.16-1.23.5-.29,1.09-.44,1.74-.44.79,0,1.45.2,1.96.6.43.33.73.75.93,1.29l-.34.1c-.17-.49-.44-.89-.79-1.2-.45-.39-1.05-.59-1.77-.59-.88,0-1.6.31-2.14.92-.52.6-.78,1.4-.78,2.38,0,1.03.26,1.83.76,2.43.52.62,1.24.94,2.12.94.76,0,1.37-.2,1.83-.6.36-.32.63-.73.81-1.25l.34.1c-.21.56-.53,1-.96,1.34-.51.4-1.18.6-1.98.6Z"/>
          <path class="cls-1" d="M44.46,10.34c-.72,0-1.36.16-1.93.49-.56.33-1,.79-1.3,1.38-.31.59-.46,1.27-.46,2.03s.15,1.44.45,2.03c.3.59.73,1.05,1.29,1.38.56.33,1.2.49,1.93.49.89,0,1.63-.22,2.21-.68.58-.45.99-1.08,1.21-1.88l-1.07-.32c-.15.62-.42,1.09-.8,1.43-.39.34-.91.51-1.58.51-.77,0-1.39-.27-1.84-.8-.45-.54-.68-1.24-.68-2.12v-.06c0-.89.23-1.6.69-2.13.46-.53,1.08-.8,1.85-.8.64,0,1.15.17,1.53.5.38.33.64.79.78,1.38l1.07-.3c-.2-.77-.59-1.39-1.17-1.84-.58-.45-1.31-.68-2.19-.68h0Z"/>
        </g>
        <g>
          <polygon class="cls-1" points="54.02 17.61 51.46 13.4 49.65 15.31 49.65 17.61 49.3 17.61 49.3 7.64 49.65 7.64 49.65 15.18 53.73 10.86 54 10.86 51.67 13.21 54.37 17.61 54.02 17.61"/>
          <polygon class="cls-1" points="50.02 7.27 48.93 7.27 48.93 17.99 50.02 17.99 50.02 15.46 51.39 14.01 53.81 17.99 55.04 17.99 52.14 13.26 54.89 10.48 53.57 10.48 50.02 14.23 50.02 7.27 50.02 7.27"/>
        </g>
        <g>
          <path class="cls-1" d="M58.85,17.76c-.66,0-1.25-.15-1.74-.44-.49-.29-.88-.7-1.16-1.22-.28-.53-.42-1.15-.42-1.86s.14-1.32.43-1.85c.28-.52.67-.94,1.17-1.23.5-.29,1.09-.44,1.75-.44s1.23.15,1.74.44c.5.29.89.71,1.17,1.23.28.53.42,1.15.42,1.85s-.15,1.31-.43,1.84c-.29.54-.67.94-1.18,1.24-.5.29-1.09.44-1.75.44ZM58.89,10.9c-.9,0-1.64.31-2.18.92-.53.6-.8,1.4-.8,2.4,0,1.04.26,1.84.79,2.43.53.6,1.26.91,2.17.91s1.65-.3,2.18-.91c.52-.59.79-1.38.79-2.37,0-1.05-.26-1.86-.77-2.46-.53-.61-1.26-.93-2.16-.93Z"/>
          <path class="cls-1" d="M58.89,10.34c-.73,0-1.38.16-1.94.49-.56.33-1,.79-1.31,1.38-.31.59-.47,1.27-.47,2.03s.15,1.45.46,2.04c.31.58.74,1.04,1.3,1.37.56.33,1.2.49,1.93.49s1.38-.16,1.94-.49c.56-.33,1-.79,1.32-1.38.32-.59.48-1.27.48-2.02s-.16-1.44-.47-2.03c-.31-.59-.75-1.05-1.31-1.38-.56-.33-1.2-.49-1.93-.49h0ZM58.85,17.18c-.8,0-1.42-.26-1.89-.78-.46-.52-.69-1.22-.69-2.12v-.06c0-.9.24-1.62.71-2.15.47-.53,1.11-.8,1.9-.8s1.42.27,1.88.8c.46.53.68,1.25.68,2.15v.06c0,.89-.23,1.6-.69,2.12-.46.52-1.1.78-1.9.78h0Z"/>
        </g>
        <g>
          <path class="cls-1" d="M66.35,17.76c-.72,0-1.25-.21-1.62-.65-.38-.45-.58-1.1-.58-1.94v-4.32h.38v4.25c0,.78.17,1.38.5,1.78.35.43.87.65,1.56.65.54,0,1-.14,1.38-.41-.07.08-.15.15-.24.22-.35.27-.82.41-1.39.41ZM69.28,17.61v-3.77l-.02.05s0-3.04,0-3.04h.36v6.76h-.35Z"/>
          <path class="cls-1" d="M70.01,10.48h-1.11v3.28c0,1.06-.2,1.89-.6,2.5-.4.6-.97.91-1.71.91-.57,0-1-.17-1.27-.51-.28-.34-.41-.85-.41-1.54v-4.63h-1.13v4.69c0,.93.22,1.66.67,2.18.45.52,1.08.78,1.91.78.66,0,1.2-.16,1.61-.48.42-.32.73-.81.95-1.46v1.8h1.1v-7.51h0Z"/>
        </g>
        <g>
          <path class="cls-1" d="M74.1,17.61c-.36,0-.64-.05-.83-.15-.17-.09-.29-.22-.36-.39-.09-.21-.13-.5-.13-.86v-5.15h-1.35v-.21h1.37v-1.75l.32-.22v1.97h1.78v.21h-1.8v5.02c0,.44.1.76.3.98.21.22.53.33.97.33h.5v.22h-.75Z"/>
          <path class="cls-1" d="M73.47,8.17l-1.07.73v1.58h-1.37v.95h1.35v4.77c0,.41.05.75.16,1,.11.25.28.45.53.58.25.13.59.2,1.01.2h1.13v-.97h-.88c-.33,0-.56-.07-.69-.21-.13-.14-.2-.38-.2-.72v-4.65h1.8v-.95h-1.78v-2.31h0Z"/>
        </g>
      </g>
    </g>
  </g>
</svg>