<?xml version="1.0" encoding="UTF-8"?>
<svg id="Layer_2" data-name="Layer 2" xmlns="http://www.w3.org/2000/svg" viewBox="0 0 19.46 19.46">
  <defs>
    <style>
      .cls-1 {
        fill: #161515;
      }
    </style>
  </defs>
  <g id="Layer_1-2" data-name="Layer 1">
    <path class="cls-1" d="M15.13,19.46H4.33c-2.39,0-4.33-1.94-4.33-4.33V4.33C0,1.94,1.94,0,4.33,0h10.79c2.39,0,4.33,1.94,4.33,4.33v10.79c0,2.39-1.94,4.33-4.33,4.33ZM4.33,1c-1.84,0-3.33,1.5-3.33,3.33v10.79c0,1.84,1.5,3.33,3.33,3.33h10.79c1.84,0,3.33-1.5,3.33-3.33V4.33c0-1.84-1.5-3.33-3.33-3.33H4.33Z"/>
  </g>
</svg>