<?xml version="1.0" encoding="UTF-8"?>
<svg id="Layer_2" data-name="Layer 2" xmlns="http://www.w3.org/2000/svg" viewBox="0 0 18.46 18.46">
  <defs>
    <style>
      .cls-1 {
        fill: #fff;
      }

      .cls-2 {
        fill: #161515;
      }
    </style>
  </defs>
  <g id="Layer_1-2" data-name="Layer 1">
    <g>
      <rect class="cls-2" width="18.46" height="18.46" rx="3.84" ry="3.84"/>
      <path class="cls-1" d="M15.3,15.79c-.13,0-.25-.05-.35-.14L2.82,3.51c-.19-.19-.19-.5,0-.69s.5-.19.69,0l12.13,12.13c.19.19.19.5,0,.69-.1.1-.22.14-.35.14Z"/>
      <path class="cls-1" d="M3.17,15.79c-.13,0-.25-.05-.35-.14-.19-.19-.19-.5,0-.69L14.95,2.82c.19-.19.5-.19.69,0s.19.5,0,.69L3.51,15.64c-.1.1-.22.14-.35.14Z"/>
    </g>
  </g>
</svg>