<?xml version="1.0" encoding="UTF-8"?>
<svg id="Layer_2" data-name="Layer 2" xmlns="http://www.w3.org/2000/svg" viewBox="0 0 40.91 41.46">
  <defs>
    <style>
      .cls-1 {
        fill: #fff;
      }
    </style>
  </defs>
  <g id="Layer_1-2" data-name="Layer 1">
    <path class="cls-1" d="M20.45,0C9.16,0,0,9.32,0,20.81c0,9.76,6.6,17.95,15.51,20.2v-13.84h-4.22v-6.36h4.22v-2.74c0-7.08,3.15-10.37,9.99-10.37,1.3,0,3.53.26,4.45.52v5.76c-.48-.05-1.32-.08-2.36-.08-3.35,0-4.65,1.29-4.65,4.65v2.25h6.68l-1.15,6.36h-5.53v14.3c10.13-1.24,17.98-10.02,17.98-20.65C40.91,9.32,31.75,0,20.45,0Z"/>
  </g>
</svg>