<?xml version="1.0" encoding="UTF-8"?>
<svg id="Layer_2" data-name="Layer 2" xmlns="http://www.w3.org/2000/svg" viewBox="0 0 762.82 107.07">
  <defs>
    <style>
      .cls-1 {
        fill: #161515;
      }
    </style>
  </defs>
  <g id="Layer_1-2" data-name="Layer 1">
    <g>
      <path class="cls-1" d="M16.47,61.77v41.18H0V4.12h57.65v16.47H16.47v24.71h32.94v16.47H16.47Z"/>
      <path class="cls-1" d="M114.34,107.07c-14.8,0-27.42-5.22-37.87-15.67-10.45-10.45-15.67-23.07-15.67-37.87s5.22-27.42,15.67-37.87C86.92,5.22,99.54,0,114.34,0s27.42,5.22,37.87,15.67c10.44,10.45,15.67,23.07,15.67,37.87s-5.22,27.42-15.67,37.87c-10.45,10.45-23.07,15.67-37.87,15.67ZM114.34,90.6c10.25,0,18.99-3.61,26.22-10.84,7.23-7.23,10.84-15.97,10.84-26.22s-3.61-18.99-10.84-26.22c-7.23-7.23-15.97-10.84-26.22-10.84s-18.99,3.61-26.22,10.84c-7.23,7.23-10.84,15.97-10.84,26.22s3.61,18.99,10.84,26.22c7.23,7.23,15.97,10.84,26.22,10.84Z"/>
      <path class="cls-1" d="M232.35,107.07c-14.8,0-27.42-5.22-37.87-15.67-10.45-10.45-15.67-23.07-15.67-37.87s5.22-27.42,15.67-37.87c10.44-10.45,23.07-15.67,37.87-15.67s27.42,5.22,37.87,15.67c10.44,10.45,15.67,23.07,15.67,37.87s-5.22,27.42-15.67,37.87c-10.45,10.45-23.07,15.67-37.87,15.67ZM232.35,90.6c10.25,0,18.99-3.61,26.22-10.84,7.23-7.23,10.84-15.97,10.84-26.22s-3.61-18.99-10.84-26.22c-7.23-7.23-15.97-10.84-26.22-10.84s-18.99,3.61-26.22,10.84c-7.23,7.23-10.84,15.97-10.84,26.22s3.61,18.99,10.84,26.22c7.23,7.23,15.97,10.84,26.22,10.84Z"/>
      <path class="cls-1" d="M321.53,20.59v82.36h-16.47V20.59h-24.71V4.12h65.89v16.47h-24.71Z"/>
      <path class="cls-1" d="M384.72,56.04l-1.03-2.51-31.92-49.42h18.53l22.65,35.07,22.65-35.07h18.53l-31.92,49.42-1.03,1.87v47.55h-16.47v-46.91Z"/>
      <path class="cls-1" d="M500.16,22.71c-6.05-4.16-12.98-6.24-20.78-6.24-10.25,0-18.99,3.61-26.22,10.84-7.23,7.23-10.84,15.97-10.84,26.22s3.61,18.99,10.84,26.22c7.23,7.23,15.97,10.84,26.22,10.84s19-3.62,26.25-10.87c5.19-5.19,8.51-11.17,9.97-17.95h-36.23v-16.47h53.54l-.13,12.29c-.9,13.08-6.07,24.34-15.51,33.78-10.47,10.47-23.1,15.7-37.9,15.7s-27.42-5.22-37.87-15.67c-10.45-10.45-15.67-23.07-15.67-37.87s5.22-27.42,15.67-37.87c10.44-10.45,23.07-15.67,37.87-15.67h.06c14.8,0,27.43,5.21,37.9,15.64.69.69,1.35,1.4,1.99,2.12l-11.65,11.65c-.64-.73-1.31-1.44-1.99-2.12-1.76-1.76-3.6-3.28-5.53-4.57Z"/>
      <path class="cls-1" d="M544.94,20.59V4.12h57.65v16.47h-57.65ZM602.72,45.3v16.47h-57.78v-16.47h57.78ZM602.6,86.48v16.47h-57.65v-16.47h57.65Z"/>
      <path class="cls-1" d="M616.82,20.59V4.12h57.65v16.47h-57.65ZM674.6,45.3v16.47h-57.78v-16.47h57.78ZM674.47,86.48v16.47h-57.65v-16.47h57.65Z"/>
      <path class="cls-1" d="M705.16,58.49v44.46h-16.47V4.12h16.47v44.46l37.06-44.46h20.59l-41.18,49.42,41.18,49.42h-20.59l-37.06-44.46Z"/>
    </g>
  </g>
</svg>