<?xml version="1.0" encoding="UTF-8"?>
<svg id="Layer_2" data-name="Layer 2" xmlns="http://www.w3.org/2000/svg" viewBox="0 0 41.46 41.46">
  <defs>
    <style>
      .cls-1 {
        fill: #fff;
      }
    </style>
  </defs>
  <g id="Layer_1-2" data-name="Layer 1">
    <path class="cls-1" d="M12.14.15c-2.21.1-3.71.46-5.03.97-1.36.53-2.52,1.24-3.67,2.4-1.15,1.15-1.86,2.31-2.38,3.67-.51,1.32-.86,2.83-.95,5.03C.01,14.43,0,15.14,0,20.77c.01,5.63.04,6.33.14,8.55.11,2.2.46,3.71.97,5.03.53,1.36,1.24,2.52,2.4,3.67,1.15,1.15,2.31,1.86,3.68,2.38,1.32.51,2.83.86,5.03.95,2.21.1,2.92.12,8.55.11s6.34-.04,8.55-.14,3.71-.46,5.03-.97c1.36-.53,2.52-1.24,3.67-2.4s1.86-2.31,2.38-3.68c.51-1.32.86-2.83.95-5.03.1-2.21.12-2.92.11-8.55s-.04-6.33-.14-8.55-.46-3.71-.97-5.03c-.53-1.36-1.24-2.52-2.4-3.67s-2.31-1.86-3.68-2.38c-1.32-.51-2.83-.86-5.03-.95S26.32,0,20.69,0c-5.63.01-6.33.04-8.55.14M12.39,37.62c-2.02-.09-3.12-.42-3.85-.7-.97-.37-1.66-.82-2.39-1.55s-1.18-1.41-1.55-2.38c-.28-.73-.63-1.83-.72-3.85-.1-2.18-.12-2.84-.14-8.38-.01-5.54,0-6.19.11-8.38.09-2.02.42-3.12.7-3.85.37-.97.82-1.66,1.55-2.39s1.41-1.18,2.38-1.55c.73-.29,1.83-.62,3.85-.72,2.19-.1,2.84-.12,8.38-.14,5.53-.01,6.19,0,8.38.11,2.02.09,3.12.42,3.85.7.97.37,1.66.82,2.39,1.55s1.18,1.41,1.56,2.38c.29.73.62,1.82.72,3.85.1,2.19.13,2.84.14,8.38s0,6.19-.11,8.38c-.09,2.02-.42,3.12-.7,3.85-.37.97-.82,1.66-1.55,2.39s-1.41,1.18-2.38,1.55c-.73.28-1.83.62-3.85.72-2.19.1-2.84.12-8.38.14s-6.19-.01-8.38-.11M29.29,9.65c0,1.37,1.12,2.49,2.49,2.48s2.49-1.12,2.48-2.49c0-1.37-1.12-2.49-2.49-2.48h0c-1.37,0-2.48,1.12-2.48,2.49M10.09,20.75c.01,5.88,4.79,10.63,10.66,10.62,5.88-.01,10.64-4.79,10.63-10.66-.01-5.88-4.79-10.64-10.67-10.62s-10.63,4.79-10.62,10.67M13.82,20.74c0-3.82,3.08-6.92,6.9-6.92,3.82,0,6.92,3.08,6.92,6.9,0,3.82-3.08,6.92-6.9,6.92-3.82,0-6.92-3.08-6.92-6.89h0"/>
  </g>
</svg>