<?xml version="1.0" encoding="UTF-8"?>
<svg id="Layer_2" data-name="Layer 2" xmlns="http://www.w3.org/2000/svg" viewBox="0 0 18.86 31.67">
  <defs>
    <style>
      .cls-1 {
        fill: #fff;
      }
    </style>
  </defs>
  <g id="Layer_1-2" data-name="Layer 1">
    <g>
      <path class="cls-1" d="M18.35,0H.51c-.23,0-.51.18-.51.43v30.31c0,.68.68.96,1.24.92.37-.02.67-.02.95-.25.17-.13.34-.48.34-.75v-.99c0-.25.2-.41.46-.41h12.96c.23,0,.39.23.39.41v1c0,.3.19.65.39.79.28.19.56.18.91.21.55.04,1.23-.25,1.23-.92V.49c0-.29-.21-.49-.5-.49ZM17.28,26.77H1.71V1.74h15.57v25.03Z"/>
      <path class="cls-1" d="M2.65,2.75v23.02h13.55V2.75H2.65ZM11.56,9.83h-4.31c-.32,0-.55-.27-.55-.55,0-.28.22-.56.55-.56h4.29c.27,0,.47.28.5.49.02.27-.16.52-.47.61ZM11.55,7.65h-4.3c-.32,0-.55-.28-.55-.54,0-.34.26-.56.62-.56h4.21c.27,0,.47.28.5.51.02.2-.16.6-.48.6ZM11.55,5.47h-4.3c-.32,0-.54-.28-.55-.54-.01-.35.26-.56.62-.56h4.21c.27.01.47.28.5.51.02.21-.16.59-.48.6ZM13.55,16.94c-.42-.02-.7-.34-.7-.75v-2.71c0-.39.26-.69.63-.74.31-.04.82.15.82.57v3.04c0,.41-.48.61-.74.59Z"/>
    </g>
  </g>
</svg>