<?xml version="1.0" encoding="UTF-8"?>
<svg id="Layer_2" data-name="Layer 2" xmlns="http://www.w3.org/2000/svg" viewBox="0 0 136.75 19.19">
  <defs>
    <style>
      .cls-1 {
        fill: #fff;
      }
    </style>
  </defs>
  <g id="Layer_1-2" data-name="Layer 1">
    <g>
      <path class="cls-1" d="M2.95,11.07v7.38H0V.74h10.34v2.95H2.95v4.43h5.91v2.95H2.95Z"/>
      <path class="cls-1" d="M20.5,19.19c-2.65,0-4.92-.94-6.79-2.81-1.87-1.87-2.81-4.14-2.81-6.79s.94-4.92,2.81-6.79c1.87-1.87,4.14-2.81,6.79-2.81s4.92.94,6.79,2.81c1.87,1.87,2.81,4.14,2.81,6.79s-.94,4.92-2.81,6.79c-1.87,1.87-4.14,2.81-6.79,2.81ZM20.5,16.24c1.84,0,3.4-.65,4.7-1.94,1.3-1.3,1.94-2.86,1.94-4.7s-.65-3.4-1.94-4.7c-1.3-1.3-2.86-1.94-4.7-1.94s-3.4.65-4.7,1.94c-1.3,1.3-1.94,2.86-1.94,4.7s.65,3.4,1.94,4.7c1.3,1.3,2.86,1.94,4.7,1.94Z"/>
      <path class="cls-1" d="M41.65,19.19c-2.65,0-4.92-.94-6.79-2.81-1.87-1.87-2.81-4.14-2.81-6.79s.94-4.92,2.81-6.79c1.87-1.87,4.14-2.81,6.79-2.81s4.92.94,6.79,2.81c1.87,1.87,2.81,4.14,2.81,6.79s-.94,4.92-2.81,6.79c-1.87,1.87-4.14,2.81-6.79,2.81ZM41.65,16.24c1.84,0,3.4-.65,4.7-1.94,1.3-1.3,1.94-2.86,1.94-4.7s-.65-3.4-1.94-4.7c-1.3-1.3-2.86-1.94-4.7-1.94s-3.4.65-4.7,1.94c-1.3,1.3-1.94,2.86-1.94,4.7s.65,3.4,1.94,4.7c1.3,1.3,2.86,1.94,4.7,1.94Z"/>
      <path class="cls-1" d="M57.64,3.69v14.77h-2.95V3.69h-4.43V.74h11.81v2.95h-4.43Z"/>
      <path class="cls-1" d="M68.97,10.05l-.18-.45L63.06.74h3.32l4.06,6.29,4.06-6.29h3.32l-5.72,8.86-.18.33v8.52h-2.95v-8.41Z"/>
      <path class="cls-1" d="M89.66,4.07c-1.08-.75-2.33-1.12-3.73-1.12-1.84,0-3.4.65-4.7,1.94-1.3,1.3-1.94,2.86-1.94,4.7s.65,3.4,1.94,4.7c1.3,1.3,2.86,1.94,4.7,1.94s3.41-.65,4.71-1.95c.93-.93,1.53-2,1.79-3.22h-6.49v-2.95h9.6l-.02,2.2c-.16,2.35-1.09,4.36-2.78,6.06-1.88,1.88-4.14,2.81-6.79,2.81s-4.92-.94-6.79-2.81c-1.87-1.87-2.81-4.14-2.81-6.79s.94-4.92,2.81-6.79c1.87-1.87,4.14-2.81,6.79-2.81h.01c2.65,0,4.92.93,6.79,2.8.12.12.24.25.36.38l-2.09,2.09c-.12-.13-.23-.26-.36-.38-.32-.32-.65-.59-.99-.82Z"/>
      <path class="cls-1" d="M97.69,3.69V.74h10.34v2.95h-10.34ZM108.05,8.12v2.95h-10.36v-2.95h10.36ZM108.03,15.5v2.95h-10.34v-2.95h10.34Z"/>
      <path class="cls-1" d="M110.58,3.69V.74h10.34v2.95h-10.34ZM120.94,8.12v2.95h-10.36v-2.95h10.36ZM120.91,15.5v2.95h-10.34v-2.95h10.34Z"/>
      <path class="cls-1" d="M126.42,10.49v7.97h-2.95V.74h2.95v7.97l6.64-7.97h3.69l-7.38,8.86,7.38,8.86h-3.69l-6.64-7.97Z"/>
    </g>
  </g>
</svg>