<?xml version="1.0" encoding="UTF-8"?>
<svg id="Layer_2" data-name="Layer 2" xmlns="http://www.w3.org/2000/svg" viewBox="0 0 21.05 17.79">
  <defs>
    <style>
      .cls-1 {
        fill: #fff;
      }
    </style>
  </defs>
  <g id="Layer_1-2" data-name="Layer 1">
    <g>
      <path class="cls-1" d="M20.03,2.04H1.02c-.56,0-1.02-.46-1.02-1.02S.46,0,1.02,0h19c.56,0,1.02.46,1.02,1.02s-.46,1.02-1.02,1.02Z"/>
      <path class="cls-1" d="M20.03,17.79H1.02c-.56,0-1.02-.46-1.02-1.02s.46-1.02,1.02-1.02h19c.56,0,1.02.46,1.02,1.02s-.46,1.02-1.02,1.02Z"/>
      <path class="cls-1" d="M20.03,9.92H1.02c-.56,0-1.02-.46-1.02-1.02s.46-1.02,1.02-1.02h19c.56,0,1.02.46,1.02,1.02s-.46,1.02-1.02,1.02Z"/>
    </g>
  </g>
</svg>