<?xml version="1.0" encoding="UTF-8"?>
<svg id="Layer_2" data-name="Layer 2" xmlns="http://www.w3.org/2000/svg" viewBox="0 0 14.24 23.92">
  <defs>
    <style>
      .cls-1 {
        fill: #161515;
      }
    </style>
  </defs>
  <g id="Layer_1-2" data-name="Layer 1">
    <g>
      <path class="cls-1" d="M13.86,0H.38c-.18,0-.38.14-.38.32v22.89c0,.51.51.72.93.7.28-.02.51-.01.72-.19.13-.1.25-.36.25-.57v-.75c0-.19.15-.31.35-.31h9.79c.17,0,.3.17.3.31v.76c0,.23.14.49.29.6.21.14.42.14.68.16.42.03.93-.19.93-.7V.37c0-.22-.16-.37-.38-.37ZM13.05,20.22H1.29V1.32h11.76v18.9Z"/>
      <path class="cls-1" d="M2,2.08v17.39h10.24V2.08H2ZM8.73,7.43h-3.25c-.24,0-.41-.21-.42-.41,0-.22.16-.42.41-.42h3.24c.2,0,.36.21.38.37.02.2-.12.39-.35.46ZM8.72,5.78h-3.25c-.24,0-.41-.21-.41-.41,0-.25.2-.43.47-.43h3.18c.21,0,.35.22.38.38.02.15-.12.45-.36.45ZM8.72,4.13h-3.25c-.24,0-.41-.22-.41-.41,0-.26.19-.43.47-.43h3.18c.21,0,.35.22.38.38.02.16-.12.45-.36.45ZM10.24,12.79c-.32-.02-.53-.25-.53-.57v-2.05c0-.3.2-.52.47-.56.24-.03.62.11.62.43v2.3c0,.31-.36.46-.56.45Z"/>
    </g>
  </g>
</svg>