<?xml version="1.0" encoding="UTF-8"?>
<svg id="Layer_2" data-name="Layer 2" xmlns="http://www.w3.org/2000/svg" viewBox="0 0 81.96 20.45">
  <defs>
    <style>
      .cls-1 {
        fill: #161515;
      }
    </style>
  </defs>
  <g id="Layer_1-2" data-name="Layer 1">
    <g>
      <path class="cls-1" d="M9.73,7.26h1.07v5.93h-1.1v-4.19c-.23.29-.49.54-.78.74-.28.21-.61.36-.98.47v-1.03c.32-.12.6-.26.84-.43.24-.17.44-.38.6-.63.16-.24.28-.53.35-.86Z"/>
      <path class="cls-1" d="M10.22,0C4.59,0,0,4.59,0,10.22s4.59,10.23,10.22,10.23,10.23-4.59,10.23-10.23S15.86,0,10.22,0ZM10.22,19.17c-4.93,0-8.95-4.01-8.95-8.95S5.29,1.27,10.22,1.27s8.95,4.02,8.95,8.95-4.01,8.95-8.95,8.95Z"/>
      <path class="cls-1" d="M10.8,7.26v5.93h-1.1v-4.19c-.23.29-.49.54-.78.74-.28.21-.61.36-.98.47v-1.03c.32-.12.6-.26.84-.43.24-.17.44-.38.6-.63.16-.24.28-.53.35-.86h1.07Z"/>
      <path class="cls-1" d="M10.8,7.26v5.93h-1.1v-4.19c-.23.29-.49.54-.78.74-.28.21-.61.36-.98.47v-1.03c.32-.12.6-.26.84-.43.24-.17.44-.38.6-.63.16-.24.28-.53.35-.86h1.07Z"/>
      <path class="cls-1" d="M40.34,11.75c-.13.14-.23.31-.27.49h3.05v1h-4.3v-.29c0-.49.1-.92.3-1.27.21-.35.44-.63.72-.83.27-.2.62-.42,1.04-.67.26-.14.46-.26.61-.36.15-.1.27-.21.37-.34.09-.12.14-.26.14-.41,0-.26-.08-.46-.23-.61-.16-.15-.39-.23-.7-.23s-.55.08-.75.23c-.21.14-.39.39-.55.73l-.97-.44c.24-.52.55-.9.92-1.16.38-.25.84-.38,1.38-.38.41,0,.77.07,1.08.22.31.15.55.36.72.64.17.27.26.6.26.97,0,.33-.08.61-.23.85-.16.23-.35.42-.57.57-.22.16-.52.33-.88.53-.28.14-.51.27-.68.38-.17.11-.32.23-.46.38Z"/>
      <path class="cls-1" d="M40.98,0c-5.64,0-10.22,4.59-10.22,10.22s4.58,10.23,10.22,10.23,10.22-4.59,10.22-10.23S46.62,0,40.98,0ZM40.98,19.17c-4.93,0-8.95-4.01-8.95-8.95S36.05,1.27,40.98,1.27s8.95,4.02,8.95,8.95-4.01,8.95-8.95,8.95Z"/>
      <path class="cls-1" d="M40.07,12.24h3.05v1h-4.3v-.29c0-.49.1-.92.3-1.27.21-.35.44-.63.72-.83.27-.2.62-.42,1.04-.67.26-.14.46-.26.61-.36.15-.1.27-.21.37-.34.09-.12.14-.26.14-.41,0-.26-.08-.46-.23-.61-.16-.15-.39-.23-.7-.23s-.55.08-.75.23c-.21.14-.39.39-.55.73l-.97-.44c.24-.52.55-.9.92-1.16.38-.25.84-.38,1.38-.38.41,0,.77.07,1.08.22.31.15.55.36.72.64.17.27.26.6.26.97,0,.33-.08.61-.23.85-.16.23-.35.42-.57.57-.22.16-.52.33-.88.53-.28.14-.51.27-.68.38-.17.11-.32.23-.46.38-.13.14-.23.31-.27.49Z"/>
      <path class="cls-1" d="M40.07,12.24h3.05v1h-4.3v-.29c0-.49.1-.92.3-1.27.21-.35.44-.63.72-.83.27-.2.62-.42,1.04-.67.26-.14.46-.26.61-.36.15-.1.27-.21.37-.34.09-.12.14-.26.14-.41,0-.26-.08-.46-.23-.61-.16-.15-.39-.23-.7-.23s-.55.08-.75.23c-.21.14-.39.39-.55.73l-.97-.44c.24-.52.55-.9.92-1.16.38-.25.84-.38,1.38-.38.41,0,.77.07,1.08.22.31.15.55.36.72.64.17.27.26.6.26.97,0,.33-.08.61-.23.85-.16.23-.35.42-.57.57-.22.16-.52.33-.88.53-.28.14-.51.27-.68.38-.17.11-.32.23-.46.38-.13.14-.23.31-.27.49Z"/>
      <path class="cls-1" d="M73.76,10.58c.19.25.28.56.28.92,0,.57-.2,1.01-.6,1.33-.4.31-.97.47-1.71.47-.7,0-1.25-.15-1.65-.46-.41-.3-.62-.79-.65-1.47h1.11c.02.33.13.57.32.73.19.16.48.24.88.24s.66-.07.86-.22c.19-.15.29-.36.29-.64v-.03c0-.29-.08-.51-.25-.64-.16-.13-.44-.19-.84-.19h-.5v-.95h.5c.33,0,.58-.06.75-.19.16-.13.24-.32.24-.57v-.02c0-.24-.09-.43-.28-.57-.19-.15-.45-.22-.79-.22-.37,0-.64.09-.82.26-.17.17-.27.42-.31.74h-1.09c.06-.63.28-1.11.67-1.45.39-.33.91-.5,1.57-.5.71,0,1.25.15,1.62.44.37.29.56.7.56,1.24,0,.31-.08.57-.24.77-.15.2-.38.35-.7.45.34.1.6.28.78.53Z"/>
      <path class="cls-1" d="M71.74,0c-5.64,0-10.23,4.59-10.23,10.22s4.59,10.23,10.23,10.23,10.22-4.59,10.22-10.23S77.37,0,71.74,0ZM71.74,19.17c-4.94,0-8.95-4.01-8.95-8.95s4.01-8.95,8.95-8.95,8.95,4.02,8.95,8.95-4.02,8.95-8.95,8.95Z"/>
      <path class="cls-1" d="M74.04,11.5c0,.57-.2,1.01-.6,1.33-.4.31-.97.47-1.71.47-.7,0-1.25-.15-1.65-.46-.41-.3-.62-.79-.65-1.47h1.11c.02.33.13.57.32.73.19.16.48.24.88.24s.66-.07.86-.22c.19-.15.29-.36.29-.64v-.03c0-.29-.08-.51-.25-.64-.16-.13-.44-.19-.84-.19h-.5v-.95h.5c.33,0,.58-.06.75-.19.16-.13.24-.32.24-.57v-.02c0-.24-.09-.43-.28-.57-.19-.15-.45-.22-.79-.22-.37,0-.64.09-.82.26-.17.17-.27.42-.31.74h-1.09c.06-.63.28-1.11.67-1.45.39-.33.91-.5,1.57-.5.71,0,1.25.15,1.62.44.37.29.56.7.56,1.24,0,.31-.08.57-.24.77-.15.2-.38.35-.7.45.34.1.6.28.78.53.19.25.28.56.28.92Z"/>
      <path class="cls-1" d="M74.04,11.5c0,.57-.2,1.01-.6,1.33-.4.31-.97.47-1.71.47-.7,0-1.25-.15-1.65-.46-.41-.3-.62-.79-.65-1.47h1.11c.02.33.13.57.32.73.19.16.48.24.88.24s.66-.07.86-.22c.19-.15.29-.36.29-.64v-.03c0-.29-.08-.51-.25-.64-.16-.13-.44-.19-.84-.19h-.5v-.95h.5c.33,0,.58-.06.75-.19.16-.13.24-.32.24-.57v-.02c0-.24-.09-.43-.28-.57-.19-.15-.45-.22-.79-.22-.37,0-.64.09-.82.26-.17.17-.27.42-.31.74h-1.09c.06-.63.28-1.11.67-1.45.39-.33.91-.5,1.57-.5.71,0,1.25.15,1.62.44.37.29.56.7.56,1.24,0,.31-.08.57-.24.77-.15.2-.38.35-.7.45.34.1.6.28.78.53.19.25.28.56.28.92Z"/>
    </g>
  </g>
</svg>