<?xml version="1.0" encoding="UTF-8"?>
<svg id="Layer_2" data-name="Layer 2" xmlns="http://www.w3.org/2000/svg" viewBox="0 0 81.96 20.44">
  <defs>
    <style>
      .cls-1 {
        fill: #fff;
      }

      .cls-2 {
        fill: #161515;
      }
    </style>
  </defs>
  <g id="Layer_1-2" data-name="Layer 1">
    <g>
      <path class="cls-2" d="M20.45,10.22c0,5.64-4.59,10.22-10.23,10.22S0,15.86,0,10.22,4.58,0,10.22,0s10.23,4.58,10.23,10.22Z"/>
      <path class="cls-1" d="M8.92,9.74c-.28.21-.61.36-.98.47v-1.03c.32-.11.6-.26.84-.43s.44-.38.6-.63c.16-.25.28-.53.35-.86h1.07v5.92h-1.1v-4.19c-.24.29-.5.54-.78.74Z"/>
      <path class="cls-2" d="M51.2,10.22c0,5.64-4.59,10.22-10.23,10.22s-10.22-4.58-10.22-10.22S35.34,0,40.98,0s10.23,4.58,10.23,10.22Z"/>
      <path class="cls-1" d="M39.12,11.68c.2-.35.44-.63.71-.83s.62-.42,1.04-.67c.26-.14.47-.26.62-.37.15-.1.27-.21.36-.33.1-.12.14-.26.14-.41,0-.26-.08-.46-.23-.61-.15-.15-.39-.23-.7-.23-.3,0-.55.07-.75.22s-.38.39-.54.74l-.97-.44c.24-.52.55-.9.92-1.16s.84-.38,1.38-.38c.41,0,.77.07,1.08.22s.55.36.72.64c.17.28.26.6.26.98,0,.33-.08.61-.23.84-.15.23-.34.43-.57.58-.22.15-.52.33-.89.52-.28.15-.5.28-.67.38-.17.11-.32.23-.46.38s-.23.31-.28.49h3.06v1h-4.3v-.29c0-.5.1-.92.3-1.27Z"/>
      <path class="cls-2" d="M81.96,10.22c0,5.64-4.59,10.22-10.22,10.22s-10.23-4.58-10.23-10.22S66.1,0,71.74,0s10.22,4.58,10.22,10.22Z"/>
      <path class="cls-1" d="M70.07,12.84c-.4-.3-.62-.79-.64-1.47h1.1c.02.33.13.57.32.73.19.16.48.24.88.24.37,0,.66-.07.86-.22s.29-.36.29-.64v-.03c0-.3-.08-.51-.25-.64-.17-.13-.45-.2-.84-.2h-.51v-.94h.5c.34,0,.59-.06.75-.19.16-.13.24-.32.24-.57v-.02c0-.24-.1-.43-.28-.57-.19-.14-.45-.21-.78-.21-.37,0-.65.09-.82.25s-.28.42-.31.74h-1.1c.06-.63.28-1.11.67-1.45s.91-.5,1.57-.5c.71,0,1.25.15,1.62.44.37.29.56.71.56,1.25,0,.31-.08.56-.23.77-.15.2-.39.35-.7.45.34.11.6.28.78.53.18.25.28.56.28.92,0,.57-.2,1.01-.6,1.33-.4.31-.97.47-1.71.47s-1.25-.15-1.66-.45Z"/>
    </g>
  </g>
</svg>