<?xml version="1.0" encoding="UTF-8"?>
<svg id="Layer_2" data-name="Layer 2" xmlns="http://www.w3.org/2000/svg" viewBox="0 0 23.34 23.92">
  <defs>
    <style>
      .cls-1 {
        fill: #161515;
      }
    </style>
  </defs>
  <g id="Layer_1-2" data-name="Layer 1">
    <g>
      <path class="cls-1" d="M18.49,6.82c0,1.61-.56,3.09-1.5,4.26-1.25,1.57-3.17,2.57-5.33,2.57-2,0-3.8-.86-5.05-2.24-.1-.11-.19-.21-.27-.32-.25-.31-.48-.65-.67-1.01-.11-.2-.2-.39-.29-.6-.04-.11-.08-.2-.12-.31-.11-.32-.21-.64-.27-.97-.09-.45-.14-.91-.14-1.38s.05-.93.14-1.38c.06-.33.16-.65.27-.96.04-.11.08-.21.12-.32.09-.2.18-.4.29-.59.13-.24.28-.48.44-.7.16-.22.33-.44.51-.63,1.24-1.37,3.04-2.24,5.05-2.24,3.77,0,6.83,3.06,6.83,6.82Z"/>
      <path class="cls-1" d="M22.19,23.92H1.15C.49,23.92-.04,23.39,0,22.77c.28-3.95,1.97-7.43,4.48-9.73.45-.41,1.16-.38,1.61.03,1.44,1.31,3.41,2.11,5.57,2.11s4.13-.8,5.57-2.11c.45-.41,1.16-.44,1.61-.03,2.51,2.29,4.21,5.77,4.49,9.72.04.62-.48,1.15-1.15,1.15Z"/>
    </g>
  </g>
</svg>