<?xml version="1.0" encoding="UTF-8"?>
<svg id="Layer_2" data-name="Layer 2" xmlns="http://www.w3.org/2000/svg" viewBox="0 0 30.9 31.67">
  <defs>
    <style>
      .cls-1 {
        fill: #fff;
      }
    </style>
  </defs>
  <g id="Layer_1-2" data-name="Layer 1">
    <g>
      <path class="cls-1" d="M24.48,9.03c0,2.13-.74,4.1-1.98,5.64-1.66,2.08-4.2,3.4-7.06,3.4-2.65,0-5.04-1.14-6.68-2.97-.13-.14-.25-.28-.36-.43-.33-.41-.63-.87-.89-1.33-.14-.26-.26-.52-.38-.79-.06-.14-.11-.27-.16-.41-.15-.42-.28-.85-.36-1.28-.12-.6-.19-1.2-.19-1.82s.07-1.23.19-1.82c.08-.44.21-.87.36-1.28.05-.14.1-.28.16-.42.12-.26.24-.53.38-.78.18-.32.37-.63.58-.93.21-.29.44-.58.68-.84,1.65-1.82,4.03-2.96,6.68-2.96,4.99,0,9.04,4.05,9.04,9.03Z"/>
      <path class="cls-1" d="M29.37,31.67H1.53c-.88,0-1.58-.7-1.52-1.52.37-5.23,2.61-9.83,5.93-12.88.59-.55,1.54-.51,2.14.04,1.91,1.73,4.51,2.8,7.37,2.8s5.46-1.06,7.38-2.79c.6-.54,1.54-.58,2.13-.04,3.33,3.04,5.57,7.64,5.94,12.87.06.82-.64,1.52-1.52,1.52Z"/>
    </g>
  </g>
</svg>