<?xml version="1.0" encoding="UTF-8"?>
<svg id="Layer_2" data-name="Layer 2" xmlns="http://www.w3.org/2000/svg" viewBox="0 0 165.61 22.56">
  <defs>
    <style>
      .cls-1 {
        fill: #161515;
      }
    </style>
  </defs>
  <g id="Layer_1-2" data-name="Layer 1">
    <g>
      <path class="cls-1" d="M153.06,0H12.56C5.63,0,0,5.06,0,11.28s5.63,11.28,12.56,11.28h140.5c6.92,0,12.55-5.06,12.55-11.28s-5.63-11.28-12.55-11.28ZM153.06,21.28H12.56c-6.14,0-11.14-4.48-11.14-10S6.42,1.27,12.56,1.27h140.5c6.14,0,11.13,4.49,11.13,10.01s-4.99,10-11.13,10Z"/>
      <path class="cls-1" d="M19.96,16.64l-3.73-3.72c.61-.82.97-1.83.97-2.93,0-2.72-2.21-4.93-4.92-4.93s-4.93,2.21-4.93,4.93,2.21,4.92,4.93,4.92c1.26,0,2.4-.47,3.28-1.25l3.69,3.69c.1.1.23.15.35.15.13,0,.26-.05.36-.15.19-.2.19-.51,0-.71ZM12.28,13.91c-2.17,0-3.93-1.76-3.93-3.92s1.76-3.93,3.93-3.93,3.92,1.76,3.92,3.93-1.76,3.92-3.92,3.92Z"/>
    </g>
  </g>
</svg>