<?xml version="1.0" encoding="UTF-8"?>
<svg id="Layer_2" data-name="Layer 2" xmlns="http://www.w3.org/2000/svg" viewBox="0 0 39.4 31.67">
  <defs>
    <style>
      .cls-1 {
        fill: #fff;
      }
    </style>
  </defs>
  <g id="Layer_1-2" data-name="Layer 1">
    <path class="cls-1" d="M39.38.62c-.09-.42-.5-.69-.93-.6l-2.92.63c-1.56.34-2.78,1.57-3.1,3.14l-.74,3.66H2.62c-1.81,0-3.08,1.8-2.45,3.51l3.99,10.89c.38,1.03,1.36,1.72,2.45,1.72h22l-.13.94c-.34-.1-.7-.16-1.07-.16-1.45,0-2.71.85-3.29,2.08h-13.15c-.59-1.23-1.85-2.08-3.29-2.08-2.01,0-3.65,1.64-3.65,3.65s1.64,3.66,3.65,3.66,3.66-1.64,3.66-3.66h12.43c0,2.01,1.64,3.66,3.66,3.66s3.65-1.64,3.65-3.66c0-1.12-.51-2.12-1.31-2.8l.22-1.64v-.03s2.32-11.38,2.32-11.38h0c.03-.06.05-.13.06-.19l1.61-7.88c.19-.95.94-1.7,1.89-1.91l2.92-.63c.42-.09.7-.51.6-.94ZM7.68,30.09c-1.14,0-2.08-.93-2.08-2.08s.93-2.08,2.08-2.08c.51,0,.99.19,1.36.5.44.38.72.94.72,1.57,0,1.15-.93,2.08-2.08,2.08ZM27.42,30.09c-1.15,0-2.08-.93-2.08-2.08,0-.63.28-1.19.72-1.57.37-.31.84-.5,1.36-.5.3,0,.59.07.85.18.59.27,1.04.81,1.17,1.46.03.14.05.29.05.44,0,1.15-.93,2.08-2.08,2.08ZM28.69,22H6.61c-.44,0-.83-.28-.98-.69L1.64,10.42c-.17-.46.03-.82.12-.95.09-.14.37-.45.85-.45h28.71l-2.64,12.98Z"/>
  </g>
</svg>