<?xml version="1.0" encoding="UTF-8"?>
<svg id="Layer_2" data-name="Layer 2" xmlns="http://www.w3.org/2000/svg" viewBox="0 0 29.76 23.92">
  <defs>
    <style>
      .cls-1 {
        fill: #161515;
      }
    </style>
  </defs>
  <g id="Layer_1-2" data-name="Layer 1">
    <path class="cls-1" d="M29.74.47c-.07-.32-.38-.52-.71-.45l-2.2.48c-1.18.26-2.1,1.18-2.34,2.37l-.56,2.77H1.98C.61,5.62-.35,6.99.12,8.28l3.02,8.23c.29.78,1.03,1.3,1.85,1.3h16.62l-.1.71c-.26-.08-.53-.12-.81-.12-1.09,0-2.04.64-2.49,1.57h-9.93c-.44-.93-1.39-1.57-2.49-1.57-1.52,0-2.76,1.24-2.76,2.76s1.24,2.76,2.76,2.76,2.76-1.24,2.76-2.76h9.39c0,1.52,1.24,2.76,2.76,2.76s2.76-1.24,2.76-2.76c0-.84-.38-1.6-.99-2.11l.16-1.24v-.02s1.76-8.59,1.76-8.59h0s.04-.1.05-.14l1.21-5.95c.15-.72.71-1.29,1.43-1.45l2.2-.48c.32-.07.53-.39.46-.71ZM5.8,22.73c-.86,0-1.57-.71-1.57-1.57s.71-1.57,1.57-1.57c.39,0,.75.15,1.03.38.33.29.55.71.55,1.19,0,.87-.71,1.57-1.57,1.57ZM20.71,22.73c-.87,0-1.57-.71-1.57-1.57,0-.48.21-.9.55-1.19.28-.23.63-.38,1.03-.38.23,0,.45.05.65.14.45.21.78.61.89,1.1.02.11.04.22.04.33,0,.87-.71,1.57-1.57,1.57ZM21.67,16.62H4.99c-.33,0-.63-.21-.74-.52L1.24,7.87c-.13-.35.02-.62.09-.72.07-.1.28-.34.65-.34h21.69l-1.99,9.8Z"/>
  </g>
</svg>