<?xml version="1.0" encoding="UTF-8"?>
<svg id="Layer_2" data-name="Layer 2" xmlns="http://www.w3.org/2000/svg" viewBox="0 0 28.78 15.93">
  <defs>
    <style>
      .cls-1 {
        fill: #fff;
      }

      .cls-2 {
        fill: #161515;
      }

      .cls-3 {
        fill: #ace4aa;
      }
    </style>
  </defs>
  <g id="Layer_1-2" data-name="Layer 1">
    <g>
      <rect class="cls-3" x=".5" y=".5" width="27.78" height="14.93" rx="7.08" ry="7.08"/>
      <path class="cls-2" d="M21.2,15.93H7.58c-4.18,0-7.58-3.4-7.58-7.58v-.77C0,3.4,3.4,0,7.58,0h13.61c4.18,0,7.58,3.4,7.58,7.58v.77c0,4.18-3.4,7.58-7.58,7.58ZM7.58,1C3.95,1,1,3.95,1,7.58v.77c0,3.63,2.95,6.58,6.58,6.58h13.61c3.63,0,6.58-2.95,6.58-6.58v-.77c0-3.63-2.95-6.58-6.58-6.58H7.58Z"/>
      <circle class="cls-1" cx="20.81" cy="7.75" r="4.97"/>
    </g>
  </g>
</svg>