<?xml version="1.0" encoding="UTF-8"?>
<svg id="Layer_2" data-name="Layer 2" xmlns="http://www.w3.org/2000/svg" viewBox="0 0 46.07 32.46">
  <defs>
    <style>
      .cls-1 {
        fill: #fff;
      }
    </style>
  </defs>
  <g id="Layer_1-2" data-name="Layer 1">
    <path class="cls-1" d="M45.1,5.07c-.53-2-2.09-3.57-4.07-4.1-3.59-.97-18-.97-18-.97,0,0-14.41,0-18,.97C3.05,1.5,1.49,3.07.96,5.07c-.96,3.62-.96,11.16-.96,11.16,0,0,0,7.54.96,11.16.53,2,2.09,3.57,4.07,4.1,3.59.97,18,.97,18,.97,0,0,14.41,0,18-.97,1.98-.53,3.54-2.1,4.07-4.1.96-3.62.96-11.16.96-11.16,0,0,0-7.54-.96-11.16ZM18.32,23.08v-13.7l12.04,6.85s-12.04,6.85-12.04,6.85Z"/>
  </g>
</svg>